
        <svg xmlns="http://www.w3.org/2000/svg" xmlns:xlink="http://www.w3.org/1999/xlink" version="1.1" width="3128.177739799188" 
        height="1558.6413159581286" viewBox="0 0 3128.177739799188 1558.6413159581286">
			
			<g transform="scale(6.40888698995941) translate(10, 10)">
				<defs id="SvgjsDefs9567"><linearGradient id="SvgjsLinearGradient9576"><stop id="SvgjsStop9577" stop-color="#ef4136" offset="0"></stop><stop id="SvgjsStop9578" stop-color="#fbb040" offset="1"></stop></linearGradient><linearGradient id="SvgjsLinearGradient9579"><stop id="SvgjsStop9580" stop-color="#ef4136" offset="0"></stop><stop id="SvgjsStop9581" stop-color="#fbb040" offset="1"></stop></linearGradient><linearGradient id="SvgjsLinearGradient9582"><stop id="SvgjsStop9583" stop-color="#ef4136" offset="0"></stop><stop id="SvgjsStop9584" stop-color="#fbb040" offset="1"></stop></linearGradient><linearGradient id="SvgjsLinearGradient9585"><stop id="SvgjsStop9586" stop-color="#ef4136" offset="0"></stop><stop id="SvgjsStop9587" stop-color="#fbb040" offset="1"></stop></linearGradient></defs><g id="SvgjsG9568" featureKey="rootContainer" transform="matrix(1.55,0,0,1.55,0,0)" fill="url(#SvgjsLinearGradient9576)"><rect y="0" height="1" width="1" opacity="0"></rect><rect y="139" width="302" height="5"></rect></g><g id="SvgjsG9569" featureKey="symbolFeature-0" transform="matrix(0.8999534821713127,0,0,0.8999534821713127,73.99004072169579,66.79629568173794)" fill="url(#SvgjsLinearGradient9579)"><path xmlns="http://www.w3.org/2000/svg" d="M14.736,80.683c1.199,0,2.398-0.457,3.311-1.369l6.636-6.636l0.453,0.453c0.766,0.766,1.771,1.147,2.777,1.147  s2.012-0.382,2.777-1.147l42.019-42.019c1.53-1.531,1.53-4.023,0-5.555l-0.453-0.453l6.623-6.623c1.825-1.825,1.825-4.795,0-6.621  c-1.827-1.827-4.798-1.823-6.621,0l-6.623,6.623l-0.453-0.453c-1.482-1.484-4.069-1.484-5.554,0L17.609,60.049  c-0.742,0.742-1.15,1.729-1.15,2.777s0.408,2.035,1.15,2.776l0.453,0.453l-6.636,6.636c-1.824,1.826-1.824,4.796,0,6.622  C12.339,80.227,13.538,80.683,14.736,80.683z M73.672,13.274c1.044-1.044,2.745-1.046,3.793,0c1.045,1.046,1.045,2.748,0,3.793  l-6.623,6.623l-3.793-3.793L73.672,13.274z M19.023,61.463l42.019-42.019c0.364-0.364,0.849-0.564,1.363-0.564  s0.998,0.2,1.362,0.564l7.527,7.526c0.751,0.752,0.751,1.975,0,2.727L29.276,71.716c-0.752,0.75-1.975,0.75-2.727,0l-7.526-7.527  c-0.364-0.364-0.564-0.848-0.564-1.362S18.659,61.827,19.023,61.463z M12.84,74.105l6.636-6.636l3.793,3.794l-6.636,6.636  c-1.044,1.044-2.745,1.046-3.793,0C11.795,76.854,11.795,75.151,12.84,74.105z"></path><path xmlns="http://www.w3.org/2000/svg" d="M40.5,10.497c-2.275-0.696-4.803-0.036-7.125,1.852c-2.11,1.715-3.804,4.284-4.646,7.047  c-1.021,3.35-1.015,6.237,0.021,8.586c0.962,2.185,2.756,3.73,5.187,4.471c0.846,0.259,1.695,0.386,2.53,0.386  c1.52,0,2.989-0.423,4.288-1.254c2.141-1.369,3.797-3.812,4.787-7.062c0.839-2.75,0.82-5.847-0.049-8.497  C44.564,13.195,42.744,11.181,40.5,10.497z M43.63,23.938c-0.852,2.791-2.218,4.853-3.953,5.962c-1.532,0.98-3.316,1.203-5.157,0.64  c-1.856-0.565-3.219-1.729-3.939-3.364c-0.824-1.87-0.803-4.358,0.062-7.195h0.001c0.729-2.393,2.185-4.608,3.994-6.079  c1.353-1.1,2.755-1.67,4.057-1.67c0.42,0,0.829,0.059,1.224,0.18c1.613,0.491,2.953,2.036,3.676,4.238  C44.337,18.916,44.351,21.573,43.63,23.938z"></path><path xmlns="http://www.w3.org/2000/svg" d="M15.621,46.301c1.27,0.786,2.665,1.184,4.125,1.183c0.875,0,1.773-0.142,2.682-0.428c2.377-0.749,4.2-2.372,5.132-4.571  c0.992-2.34,0.977-5.291-0.044-8.533c-1.911-6.069-7.559-10.146-12.091-8.717c-3.99,1.258-6.821,7.182-4.676,13.996  C11.801,42.57,13.439,44.949,15.621,46.301z M16.026,27.143c0.404-0.128,0.828-0.188,1.262-0.188c3.195,0,6.968,3.305,8.319,7.599  c0.876,2.782,0.915,5.255,0.111,7.151c-0.71,1.675-2.056,2.865-3.893,3.443c-1.849,0.585-3.633,0.395-5.151-0.547  c-1.738-1.076-3.127-3.141-4.018-5.97c0-0.001,0-0.001,0-0.001C11.094,33.666,12.699,28.19,16.026,27.143z"></path><path xmlns="http://www.w3.org/2000/svg" d="M75.486,90.14c0.41,0.06,0.83,0.089,1.257,0.089c2.189,0,4.578-0.781,6.986-2.295c5.387-3.386,7.896-9.883,5.368-13.903  c-1.265-2.012-3.608-3.171-6.599-3.265c-2.721-0.08-5.68,0.749-8.126,2.287c-2.964,1.863-4.85,4.052-5.604,6.505  c-0.702,2.281-0.358,4.624,0.994,6.775C71.09,88.443,73.123,89.795,75.486,90.14z M70.681,80.146  c0.602-1.954,2.246-3.821,4.757-5.399c2.021-1.271,4.435-1.986,6.677-1.986c0.107,0,0.215,0.002,0.322,0.005  c2.305,0.072,4.068,0.899,4.968,2.33c1.892,3.009-0.412,8.426-4.739,11.146c-2.47,1.554-4.856,2.217-6.891,1.92  c-1.8-0.262-3.293-1.262-4.317-2.892C70.424,83.625,70.155,81.854,70.681,80.146z"></path><path xmlns="http://www.w3.org/2000/svg" d="M68.433,38.801c-5.025,5.025-6.58,11.906-4.161,16.642l-29.28,26.682c-1.056,0.976-1.677,2.321-1.704,3.693  c-0.023,1.218,0.418,2.344,1.243,3.169c0.804,0.804,1.893,1.244,3.074,1.244c0.032,0,0.063-0.001,0.095-0.001  c1.34-0.026,2.655-0.62,3.624-1.631c0.027-0.023,0.053-0.049,0.077-0.075l26.631-29.225c1.509,0.813,3.242,1.22,5.075,1.22  c3.924,0,8.282-1.822,11.752-5.292c5.915-5.915,7.043-14.412,2.515-18.94C82.847,31.76,74.35,32.888,68.433,38.801z M79.641,50.027  c-2.564,2.564-5.335,4.595-7.801,5.717c-2.071,0.941-3.758,1.128-4.405,0.481c-0.646-0.646-0.462-2.334,0.48-4.405  c1.122-2.466,3.152-5.236,5.717-7.801c4.549-4.549,8.81-6.582,10.984-6.582c0.551,0,0.968,0.131,1.222,0.384  C87.092,39.075,85.341,44.326,79.641,50.027z M69.847,40.215c3.089-3.089,6.936-4.728,10.326-4.728c0.813,0,1.598,0.097,2.341,0.288  c-3.195,0.922-7.105,3.639-10.296,6.83c-2.729,2.729-4.904,5.708-6.123,8.387c-0.299,0.657-0.522,1.278-0.692,1.87  C64.426,49.019,66.023,44.038,69.847,40.215z M39.983,87.108c-0.021,0.02-0.041,0.039-0.06,0.06  c-0.608,0.658-1.434,1.045-2.264,1.062c-0.694-0.011-1.278-0.222-1.716-0.657c-0.437-0.438-0.671-1.047-0.657-1.716  c0.017-0.83,0.403-1.655,1.057-2.259l29.042-26.464c0.172,0.206,0.34,0.415,0.532,0.608c0.145,0.145,0.302,0.274,0.455,0.407  L39.983,87.108z M83.444,53.812c-3.823,3.823-8.804,5.421-12.648,4.443c0.593-0.17,1.214-0.392,1.872-0.691  c2.679-1.219,5.657-3.394,8.387-6.123c3.191-3.192,5.907-7.102,6.829-10.297C88.872,44.991,87.274,49.982,83.444,53.812z"></path></g><g id="SvgjsG9570" featureKey="nameFeature-0" transform="matrix(2.3442516644753018,0,0,2.3442516644753018,172.73751048281537,52.90477264083717)" fill="url(#SvgjsLinearGradient9582)"><path d="M17.454 2.3260000000000005 c0.017305 -0.28746 4.0836 -0.040352 4.0672 0.25066 c-0.020898 0.30297 -0.049256 0.60416 -0.077928 0.90592 c-0.025352 0.44116 -0.031016 0.88236 -0.05668 1.3226 c-0.029258 0.44472 -0.063868 0.8886 -0.08418 1.3333 c-0.0017969 0.4674 -0.0017969 0.93516 -0.0026953 1.4029 c0.0044924 0.494 0 0.9892 0 1.4844 c0.0035938 0.49488 0 0.99008 -0.00089844 1.485 c0.0035938 0.4952 -0.00089844 0.99128 -0.00089844 1.4865 c0.0026953 0.4958 -0.0017969 0.99276 -0.0035938 1.4889 c0.0017969 0.49964 -0.0047656 0.99844 -0.009258 1.4981 c-0.00089844 0.50864 -0.011953 1.0166 -0.028359 1.5244 c-0.01375 0.531 -0.040312 1.0608 -0.086876 1.5897 c-0.045976 0.52712 -0.11164 1.0516 -0.20058 1.573 c-0.067772 0.44652 -0.073164 0.89604 -0.10152 1.3471 c-0.027461 0.46416 -0.076992 0.92712 -0.081484 1.3927 c-0.0035938 0.50892 -0.015547 1.0178 -0.034648 1.5264 c-0.015508 0.51252 -0.04504 1.0259 -0.086212 1.5375 c-0.031055 0.4576 -0.060312 0.91424 -0.058516 1.3727 c-0.0089452 0.497 -0.028359 0.994 -0.061212 1.4898 c-0.027461 0.45668 -0.074336 0.91156 -0.11344 1.3674 c-0.012852 0.49044 -0.03582 0.97996 -0.075236 1.4698 c-0.054024 0.5534 -0.11434 1.1071 -0.23434 1.6507 c-0.10508 0.45308 -0.24238 0.8978 -0.32027 1.3572 c-0.12445 0.49788 -0.26715 0.9922 -0.43816 1.4752 c-0.20058 0.50356 -0.431 0.994 -0.70564 1.4617 c-0.28356 0.43816 -0.61784 0.8408 -0.97188 1.2244 c-0.3973 0.4346 -0.83816 0.84176 -1.3608 1.1211 c-0.92712 0.50504 -1.6993 0.6534 -2.8159 0.4546 c-0.46296 -0.087772 -0.91428 -0.22777 -1.3414 -0.42716 c-0.48416 -0.19402 -0.908 -0.52624 -1.2766 -0.8898 c-0.3707 -0.24684 -0.64056 -0.66144 -0.89516 -1.0166 c-0.24328 0.2782 -0.50148 0.54084 -0.80264 0.75128 c-0.53608 0.38894 -1.1319 0.69636 -1.7909 0.81276 c-1.1859 0.0044924 -1.7963 0.098828 -2.7956 -0.4704 c-0.52356 -0.34324 -0.97188 -0.77068 -1.3041 -1.3059 c-0.25699 -0.45848 -0.48592 -0.93244 -0.67072 -1.425 c-0.18117 -0.51876 -0.35133 -1.0405 -0.43192 -1.5867 c-0.10445 -0.52624 -0.16387 -1.0588 -0.2334 -1.5904 c-0.08328 -0.60324 -0.20598 -1.2026 -0.22777 -1.813 c-0.03582 -0.64504 -0.088944 -1.2894 -0.10356 -1.9363 c-0.018203 -0.66532 -0.013711 -1.3297 -0.037578 -1.995 c-0.0089452 -0.668 0.0030078 -1.3351 0.0039062 -2.0031 c-0.024766 -0.58028 -0.061484 -1.1606 -0.095196 -1.7408 c-0.054024 -0.62504 -0.078788 -1.2492 -0.10805 -1.8751 c-0.031055 -0.66144 -0.071368 -1.3232 -0.085976 -1.9859 c-0.009258 -0.65696 -0.024766 -1.313 -0.021172 -1.9694 c-0.011953 -0.68264 -0.008086 -1.3653 -0.019141 -2.0471 c-0.012852 -0.65996 0 -1.3196 -0.031055 -1.9784 c-0.029258 -0.63696 -0.06328 -1.2739 -0.1173 -1.9091 c-0.073124 -0.7322 -0.16922 -1.4671 -0.15461 -2.2038 c-0.0053908 -0.70352 -0.010156 -1.4074 0.0074608 -2.1112 c0.014609 -0.67252 0.0089452 -1.3462 0.043868 -2.0187 c0.011055 -0.59128 0.041212 -1.1823 0.085076 -1.7718 c0.0035938 -0.054024 0.036719 -0.50952 0.069572 -0.5024 c0.032852 0.005664 0.0035938 0.089844 0.036719 0.093436 c0.038203 0.0026953 -0.040312 -0.10894 0.019102 -0.11609 c-0.073124 -0.26356 3.6597 -1.2978 3.7328 -1.0342 l0.00089844 -0.00089844 c0.24058 0.51608 0.24894 1.111 0.25074 1.6718 c-0.0026953 0.57668 -0.00089844 1.153 -0.01375 1.7297 c0.011055 0.65696 -0.0065624 1.3142 0 1.9712 c0.009258 0.69816 0.00089844 1.3975 -0.0074608 2.0957 c-0.0044924 0.62772 0.078788 1.2501 0.13102 1.8742 c0.065076 0.69548 0.097928 1.3927 0.1209 2.0909 c0.017305 0.69096 0.051016 1.382 0.05578 2.0729 c0.0044924 0.69276 0.016445 1.3853 0.0098828 2.0772 c0.0083592 0.65996 -0.0044924 1.3187 -0.011953 1.9787 c0.027461 0.6122 0.065076 1.2235 0.089844 1.8357 c0.00089844 0.5922 0.042072 1.1823 0.077576 1.7727 c0.056992 0.62112 0.076992 1.2444 0.096092 1.8676 c0.046876 0.69816 0.074336 1.3966 0.078828 2.0957 c-0.011055 0.67252 0.00089844 1.3453 -0.012852 2.0187 c0.026562 0.59488 0.053124 1.1898 0.076992 1.7846 c0.0089452 0.50772 0.10148 1.0104 0.16836 1.5136 c0.046564 0.48864 0.11434 0.97548 0.17762 1.4623 c0.04 0.36504 0.17192 0.70292 0.29192 1.0459 c0.045664 0.12445 0.098788 0.24625 0.14984 0.36894 c0.11551 -0.095236 0.22148 -0.20121 0.32418 -0.31402 c0.19672 -0.26356 0.36328 -0.5498 0.5152 -0.8408 c0.14535 -0.32953 0.22324 -0.68356 0.31012 -1.0322 c0.06418 -0.47788 0.15551 -0.95096 0.22414 -1.4276 c0.086252 -0.51252 0.097892 -1.0316 0.15461 -1.5468 c0.06328 -0.53788 0.093436 -1.0778 0.1218 -1.6187 c0.030156 -0.5316 0.062384 -1.0644 0.060588 -1.5969 c-0.029531 -0.71096 0.054924 -1.4193 0.12715 -2.1249 c0.070428 -0.63072 0.11074 -1.2656 0.12059 -1.8999 c0.017617 -0.65696 0.053124 -1.3124 0.047736 -1.9694 c0.031055 -0.58384 -0.024766 -1.1632 -0.069532 -1.7441 c-0.047772 -0.57668 -0.1391 -1.1486 -0.17582 -1.7262 c-0.017305 -0.64772 -0.062072 -1.293 -0.025664 -1.9399 c0.031328 -0.58592 0.11551 -1.1668 0.17402 -1.7509 c-0.013711 -0.5334 -0.047736 -1.0623 -0.015508 -1.5957 c0.040312 -0.4952 0.078516 -0.9904 0.11344 -1.4853 c0.027461 -0.47132 0.036719 -0.94352 0.051328 -1.4157 c0.0098436 -0.48504 0.010742 -0.97096 0.018203 -1.4569 c0.0035938 -0.4916 0.00089844 -0.9838 0.0053908 -1.4754 c0.0017969 -0.494 -0.0017969 -0.9874 0.0029688 -1.4814 c-0.014922 -0.51996 0.0044924 -1.0378 0.04 -1.5558 c0.056992 -0.43012 0.023867 -0.8704 0.11074 -1.296 c0.013711 -0.28445 4.0348 -0.090428 4.0212 0.19402 c0.042968 0.44116 -0.046564 0.88324 -0.058516 1.3244 c-0.026562 0.44388 0.0017969 0.8904 -0.010156 1.3351 c0.0026953 0.4952 -0.00089844 0.99096 -0.0026953 1.4871 c0.0035938 0.49788 -0.0017969 0.9958 -0.0065624 1.4937 c0 0.50324 -0.0089452 1.0065 -0.019102 1.5097 c-0.0083592 0.51608 -0.026562 1.0334 -0.05672 1.5486 c-0.025664 0.49308 -0.068632 0.98468 -0.1116 1.476 c-0.028359 0.48684 0.052228 0.97008 0.059376 1.4578 c0.0065624 0.64416 -0.062072 1.285 -0.15102 1.9228 c-0.043868 0.4776 -0.046564 0.95992 -0.020898 1.4384 c0.05582 0.54536 0.1609 1.0844 0.21402 1.63 c0.09164 0.71456 0.17016 1.4322 0.13016 2.1533 c-0.024766 0.68712 -0.012812 1.3745 -0.04414 2.0616 c-0.042968 0.69816 -0.072228 1.3966 -0.12984 2.093 c-0.054024 0.62236 -0.14266 1.2399 -0.19938 1.8605 c-0.01375 0.33312 -0.021211 0.66624 -0.027461 0.99936 c0.04836 0.018203 0.08328 0.038203 0.08328 0.061172 l0 0.0035938 c0.10238 0.36535 0.067772 0.75428 0.045704 1.1286 c-0.023867 0.4292 -0.037578 0.85932 -0.054884 1.2882 c-0.01375 0.43224 0.027422 0.86324 0.045624 1.2942 c0.026562 0.50592 0.045076 1.013 0.052228 1.5199 c0.065976 0.38266 0.10805 0.7686 0.18027 1.1504 c0.045664 0.18566 0.076992 0.38148 0.15461 0.55908 c0.019414 0.042072 0.05672 0.073124 0.078788 0.1143 c0.10059 0.27012 0.27906 0.4916 0.43008 0.73308 c0.012852 0.045664 0.044804 -0.0071484 0.060312 0.0026953 c0.038516 0.03043 0.065076 0.0734 0.10059 0.10711 c0.14656 0.1373 -0.0089452 -0.05582 0.27281 0.22594 c0.046564 0.021211 0.11164 0.045076 0.17195 0.048672 c0.1191 -0.071328 0.22894 -0.15551 0.34328 -0.24894 c0.23164 -0.19223 0.41012 -0.43192 0.58564 -0.67368 c0.18863 -0.2552 0.31758 -0.54084 0.44028 -0.83072 c0.10805 -0.32953 0.2334 -0.6534 0.31102 -0.99128 c0.073436 -0.43636 0.18688 -0.86468 0.2782 -1.2975 c0.088048 -0.39726 0.13641 -0.80172 0.16863 -1.2062 c0.042968 -0.47308 0.043868 -0.94888 0.092228 -1.422 c0.051328 -0.44116 0.081484 -0.88324 0.11164 -1.3262 c0.023867 -0.4492 0.029258 -0.89876 0.042108 -1.348 c-0.0026953 -0.51788 0.017617 -1.0352 0.059688 -1.5512 c0.037305 -0.47132 0.05672 -0.9444 0.079412 -1.4166 c0.017617 -0.47936 0.021211 -0.95904 0.032266 -1.4384 c0.0017969 -0.52624 0.046564 -1.0507 0.085976 -1.5752 c0.025664 -0.54264 0.045664 -1.0835 0.12356 -1.6217 c0.07672 -0.46384 0.13344 -0.92944 0.18387 -1.3963 c0.042072 -0.45936 0.05668 -0.91964 0.076992 -1.3799 c0.015508 -0.48144 0.017305 -0.9638 0.027148 -1.4452 c0.005664 -0.49044 0.0038672 -0.98084 0.009258 -1.4716 c0.0017969 -0.49308 -0.0017969 -0.9874 0.0035938 -1.4805 c0.00089844 -0.49428 -0.0035938 -0.9892 0.00089844 -1.4835 c0 -0.4952 -0.0035938 -0.9892 0.0011719 -1.4844 c0 -0.4952 -0.0047656 -0.9892 0 -1.4844 c0.0026953 -0.51608 -0.014922 -1.0322 0.017305 -1.5474 c0.040312 -0.4558 0.07582 -0.91156 0.092228 -1.3691 c0.014922 -0.48324 0.026562 -0.9626 0.079688 -1.4432 c0.029258 -0.28266 0.048672 -0.5662 0.069572 -0.85008 z M6.4948 35.3232 c0.0026953 -0.0017969 0.0045312 -0.0035938 0.0083984 -0.0053908 c-0.094336 -0.0017969 -0.18777 -0.0026953 -0.28121 -0.0044924 c0.12926 0.046564 0.047772 0.02625 0.065076 0.066564 c0.015508 0.037617 0.15371 -0.067736 0.20774 -0.05668 z M7.0536 35.3524 c0.040312 -0.018203 0.18387 -0.020938 0.21609 -0.023633 c-0.17223 -0.0017969 -0.34504 -0.0047656 -0.51696 -0.0074608 c0.014609 0.033125 0.025352 0.066836 0.039961 0.098788 c0.05582 0.1209 0.045076 0.13375 0.057928 0.060624 c0.18387 0.23609 0.10774 0.059376 0.14715 -0.012852 c0.11074 -0.0029688 -0.031953 -0.0734 0.05582 -0.11547 z M13.945 36.2082 c0.05582 -0.016406 0.1 -0.049572 0.14836 -0.07582 c-0.065076 0 -0.13074 -0.0038672 -0.19672 -0.0029688 c-0.022969 0 0.06418 0.010156 0.059412 0.034922 c-0.011055 0.051328 -0.079412 0.036406 -0.011055 0.043868 z M14.837 36.147 c0.041172 0 0.08332 -0.00082032 0.12539 -0.0020312 c-0.20508 -0.0026953 -0.411 -0.0053908 -0.61696 -0.0089844 c0.015508 0.0080468 0.032226 0.013711 0.047736 0.020859 c0.15102 0.076132 0.28445 0.0017969 0.44384 -0.0098436 z M36.46 25.875999999999998 c0.038516 0.517 0.059572 1.0348 0.06496 1.5539 c0.024766 0.57636 -0.060312 1.1512 -0.13285 1.7214 c-0.053712 0.4558 -0.078476 0.91216 -0.10594 1.3697 c-0.015508 0.48324 -0.095196 0.96024 -0.13012 1.4414 c-0.034609 0.43372 -0.052812 0.86768 -0.061172 1.3023 c-0.04746 0.46384 -0.090428 0.92796 -0.12625 1.3927 c-0.026562 0.4376 -0.033711 0.87484 -0.04746 1.3133 c-0.010156 0.474 -0.010156 0.94796 -0.017617 1.422 c-0.0035938 0.48772 0 0.97664 -0.0053908 1.4644 c-0.0053908 0.25789 0.019102 0.5152 0.039414 0.7722 c0.017305 0.28746 -4.0524 0.531 -4.0696 0.24356 c-0.020312 -0.34148 -0.051368 -0.68264 -0.071368 -1.025 c-0.0029688 -0.4952 0.0035938 -0.9892 0.0089844 -1.4844 c0.00089844 -0.49488 0.011953 -0.99008 0.025703 -1.4844 c0.011055 -0.4922 0.03375 -0.98468 0.072264 -1.4751 c0.030156 -0.41816 0.08328 -0.83368 0.098788 -1.2527 c0.02207 -0.4952 0.042072 -0.99008 0.086252 -1.4835 c0.042968 -0.43936 0.086836 -0.87844 0.098788 -1.3196 c0.022695 -0.53252 0.060312 -1.0653 0.12062 -1.5951 c0.045076 -0.41072 0.12535 -0.8208 0.1182 -1.2345 c-0.015508 -0.4576 -0.024766 -0.91604 -0.05582 -1.3727 c-0.033125 -0.3934 -0.06418 -0.7868 -0.14476 -1.174 c-0.094024 -0.39551 -0.22148 -0.77784 -0.35043 -1.1632 c-0.096992 -0.28356 -0.21668 -0.55996 -0.35219 -0.82744 c-0.076132 -0.1391 -0.1391 -0.19582 -0.26715 -0.25074 c-0.049532 -0.035508 -0.095196 -0.077576 -0.14922 -0.10684 c-0.010156 -0.0017969 0.012812 0.030156 0.0035547 0.028359 c-0.10508 -0.023867 -0.24715 -0.17312 -0.35879 -0.14746 c-0.015508 0.0026953 0.010156 0.029258 0.01375 0.043008 c-0.20297 -0.028359 -0.41996 -0.14625 -0.62768 -0.13074 c-0.011055 0.00089844 -0.011055 0.023867 -0.023008 0.023867 c-0.058516 0.0026953 -0.11613 -0.010156 -0.17375 -0.01582 c-0.22058 0.0083592 -0.44116 0.020312 -0.66176 0.025703 c0.00089844 0.05672 0.0026953 0.11434 0.0039062 0.17133 c0.00625 0.494 -0.0012109 0.98828 0.035508 1.4814 c0.031953 0.48144 0.054924 0.9638 0.10894 1.4432 c0.058516 0.52176 0.094336 1.045 0.12805 1.5686 c-0.0035938 0.44832 0.047736 0.8868 0.11996 1.328 c0.085976 0.5334 0.13641 1.0707 0.18207 1.6088 c0.038516 0.52416 0.053124 1.0495 0.071328 1.574 c0.01375 0.50592 0.015547 1.0113 0.023008 1.5172 c0.0035938 0.4988 0.0017969 0.99668 0.0071876 1.4955 c0.00089844 0.49608 -0.0017969 0.99188 0.0017969 1.488 c-0.0017969 0.46208 -0.0098436 0.92352 0.023008 1.3847 c0.045664 0.4328 0.062072 0.86832 0.085936 1.3032 c0.0017969 0.041172 0.0035938 0.082344 0.0057032 0.12352 c0.02 0.28445 -4.0112 0.56084 -4.0304 0.27609 c-0.0089452 -0.088632 -0.017305 -0.17641 -0.024453 -0.26535 c-0.0074608 -0.4164 -0.087148 -0.82084 -0.14117 -1.2337 c-0.025391 -0.528 -0.031055 -1.056 -0.027461 -1.5849 c0.0038672 -0.494 -0.00089844 -0.98828 -0.0017969 -1.4814 c0.0017969 -0.4916 -0.0044532 -0.98288 -0.0080468 -1.4745 c0 -0.48384 -0.009258 -0.96796 -0.022109 -1.4521 c-0.009258 -0.46592 -0.028359 -0.93156 -0.063868 -1.3966 c-0.033125 -0.45668 -0.087148 -0.91128 -0.16117 -1.3626 c-0.077892 -0.54712 -0.13551 -1.0936 -0.14566 -1.6461 c-0.023594 -0.4722 -0.065664 -0.94436 -0.11969 -1.4148 c-0.049532 -0.52356 -0.08414 -1.0471 -0.12356 -1.5712 c-0.031953 -0.54176 -0.043908 -1.0835 -0.057656 -1.6262 c-0.01375 -0.54472 -0.042108 -1.0901 -0.078828 -1.6336 c-0.035508 -0.63964 -0.0925 -1.2793 -0.058476 -1.9198 c-0.0026953 -0.59128 -0.015547 -1.1826 -0.0275 -1.7736 c-0.0053908 -0.68352 -0.023008 -1.3674 0.017305 -2.05 c0.017305 -0.6644 -0.0053908 -1.3286 0.0083592 -1.993 c0.01375 -0.71096 0.05672 -1.4232 0.098788 -2.1333 c0.043868 -0.61488 0.061172 -1.231 0.051328 -1.8476 c0.015508 -0.6662 -0.010156 -1.3324 0.02 -1.9986 c0.013711 -0.65964 0.053124 -1.3178 0.09074 -1.9766 c0.043868 -0.4952 0.094024 -0.9904 0.11609 -1.4862 c0.0071484 -0.33043 0.0071484 -0.671 0.090428 -0.9922 c0 -0.2734 3.8692 -0.2734 3.8692 0 l0.0017969 0 c0.08328 0.32117 0.08328 0.66176 0.09074 0.9922 c0.046564 0.55816 0.011953 1.1163 0.00089844 1.6754 c-0.034922 0.62236 -0.031055 1.2456 -0.046876 1.8688 c0.0021094 0.64892 -0.036406 1.2966 -0.031914 1.9456 c0.0065624 0.66892 -0.024766 1.336 -0.04746 2.004 c-0.034024 0.67996 -0.037617 1.3608 -0.061484 2.0417 c-0.017305 0.64532 -0.059376 1.2904 -0.05578 1.9366 c0.028359 0.67428 0.005664 1.3498 -0.0035938 2.0252 c-0.0083592 0.38234 -0.014609 0.765 -0.02207 1.1474 c0.24086 -0.0026953 0.48144 -0.0062892 0.72204 -0.0062892 c0.44388 -0.025664 0.874 0.0071876 1.3116 0.074064 c0.066876 0.005664 0.13344 0.0026953 0.19852 0.018516 c0.1173 0.022695 0.46772 0.13254 0.60592 0.17195 c0.20863 0.059412 0.40624 0.096132 0.61308 0.16746 c0.2991 0.19043 0.6498 0.30832 0.9426 0.5098 c0.96532 0.6644 -0.11254 -0.037617 0.44564 0.32297 c0.52144 0.38805 0.87304 0.92532 1.1924 1.4787 c0.24328 0.48144 0.4382 0.98468 0.59584 1.5002 c0.21043 0.45728 0.33848 0.94796 0.44564 1.4384 c0.11524 0.54832 0.17641 1.1056 0.21672 1.6638 z M40.7584 12.004999999999999 c0 -0.29012 4.1068 -0.28266 4.108 0.0074608 c-0.00089844 0.08328 -0.0017969 0.16656 -0.0017969 0.24984 c0.0026953 0.49668 -0.0035547 0.99276 -0.0071484 1.4898 c-0.00089844 0.49964 -0.010156 1.0002 -0.023867 1.4998 c-0.009258 0.5098 -0.031953 1.0193 -0.071368 1.5274 c-0.036719 0.4988 -0.093436 0.9958 -0.17223 1.4889 c-0.053712 0.38805 -0.069532 0.7734 -0.051016 1.1668 c-0.0035938 0.4952 -0.00089844 0.99096 -0.0017969 1.4871 c-0.005664 0.49788 -0.0017969 0.9958 -0.005664 1.4937 c-0.0071484 0.50324 -0.0089452 1.0065 -0.019102 1.5097 c-0.015508 0.51548 -0.025664 1.0298 -0.053124 1.5441 c-0.029258 0.46388 -0.060312 0.92892 -0.08418 1.3936 c-0.0035938 0.49964 0.00089844 0.99928 0.0017969 1.499 c-0.0035938 0.5098 0.0017969 1.0193 0.005664 1.5291 c-0.0012109 0.53728 0.0053516 1.0742 0.011602 1.6115 c0 0.57668 0.01375 1.154 -0.015508 1.7306 c-0.0044924 0.51428 -0.03375 1.0277 -0.032852 1.542 c-0.015508 0.49488 -0.026562 0.99096 -0.057616 1.4862 c-0.034922 0.47044 -0.073436 0.93996 -0.13106 1.4074 c-0.04836 0.42084 -0.049256 0.8456 -0.10418 1.2664 c-0.030156 0.28656 -0.066876 0.5758 -0.12805 0.85576 c0 0.27371 -3.8692 0.27371 -3.8692 0 l-0.00089844 0 c-0.1027 -0.36504 -0.067772 -0.754 -0.045704 -1.1283 c0.0089452 -0.45936 0.049256 -0.91424 0.098788 -1.3709 c0.051056 -0.41012 0.08328 -0.8226 0.10059 -1.2354 c0.02207 -0.45012 0.033711 -0.90056 0.037578 -1.3507 c0.02 -0.49788 -0.0038672 -0.9958 0 -1.4937 c-0.02207 -0.57192 -0.005664 -1.1438 -0.0038672 -1.7158 c0.005664 -0.53636 0.015508 -1.0716 0.015508 -1.6079 c0.0038672 -0.50892 0.009258 -1.0176 0.005664 -1.5274 c0.00089844 -0.49964 0.0053908 -0.99928 0.0017969 -1.499 c0.015508 -0.52892 0.06418 -1.056 0.088672 -1.584 c0.026562 -0.4758 0.04418 -0.95188 0.050428 -1.4286 c0.010156 -0.48592 0.019102 -0.97276 0.017305 -1.4596 c0.0038672 -0.49252 0.009258 -0.9838 0.005664 -1.476 c0.00089844 -0.4934 0.0053908 -0.98768 0.0017969 -1.4817 c-0.022969 -0.55996 0.027461 -1.1145 0.11434 -1.6674 c0.066876 -0.41552 0.10238 -0.83368 0.1373 -1.2527 c0.030156 -0.44952 0.039414 -0.90056 0.054024 -1.351 c0.011953 -0.47936 0.011953 -0.95904 0.019102 -1.4384 c0.0035938 -0.4898 0.00089844 -0.98024 0.005664 -1.4698 c0 -0.082384 -0.00089844 -0.16566 -0.00089844 -0.24805 z M45.199200000000005 3.3419999999999987 c0.031328 0.24176 0.049412 0.4832 0.014492 0.7256 c-0.044764 0.42388 -0.074924 0.84652 -0.085076 1.273 c-0.021797 0.48504 -0.059412 0.9692 -0.11344 1.4524 c-0.041172 0.43372 -0.062072 0.86744 -0.08504 1.3032 c-0.033711 0.40716 -0.076992 0.81428 -0.0916 1.2226 c-0.015508 0.31551 -0.011641 0.63876 -0.088632 0.94708 c0 0.27371 -3.8692 0.27371 -3.8692 0 l-0.00089844 -0.00089844 c-0.077616 -0.30832 -0.074024 -0.63156 -0.088632 -0.94708 c-0.017305 -0.48236 0.031055 -0.96468 0.054024 -1.4461 c0.012852 -0.48208 0.060312 -0.96084 0.11613 -1.4393 c0.044764 -0.41908 0.062384 -0.83932 0.08418 -1.2602 c-0.0017969 -0.4758 0.069532 -0.9462 0.10715 -1.4193 c0.0035938 -0.14 0.023008 -0.27281 0.062108 -0.40536 c0 -0.28207 3.9836 -0.28832 3.9845 -0.005664 z M59.736000000000004 15.940999999999999 c0.031953 0.594 0.038945 1.187 0.018047 1.781 c-0.026562 0.51428 -0.05672 1.0277 -0.071328 1.542 c-0.017617 0.48864 -0.029258 0.97816 -0.032226 1.4668 c-0.0044924 0.49252 -0.012852 0.98384 -0.012852 1.4763 c0.010156 0.56084 0 1.1146 -0.079412 1.67 c-0.078788 0.4522 -0.11461 0.90944 -0.18504 1.3625 c-0.074924 0.39816 -0.12445 0.8008 -0.15191 1.2044 c-0.06746 0.42652 -0.11969 0.85456 -0.16176 1.2838 c-0.040312 0.48684 -0.10719 0.97456 -0.20508 1.4542 c-0.10805 0.62056 -0.41548 1.1584 -0.7614 1.6727 c-0.33133 0.41012 -0.74292 0.7486 -1.174 1.0507 c-0.4146 0.27641 -0.88144 0.43848 -1.3519 0.58564 c-0.50056 0.17582 -1.022 0.2573 -1.5491 0.28746 c-0.34238 0.0044924 -0.68652 0.021211 -1.0286 0.023906 c0.0053908 0.1427 0.012852 0.28539 0.017344 0.42836 c0.013711 0.57192 0.015508 1.1429 0.023867 1.7148 c0.0053908 0.52264 0.00089844 1.045 0.0053908 1.5676 c0.00089844 0.50324 -0.0017969 1.0074 0.0017969 1.5118 c0 0.49788 -0.0044924 0.9958 0.00089844 1.4934 c-0.018203 0.12356 -0.035508 0.24625 -0.053124 0.3698 c-0.022695 0.28566 -4.0648 -0.038476 -4.042 -0.32473 c-0.0053908 -0.01375 -0.0098828 -0.02957 -0.012852 -0.04418 c0.0029688 -0.49668 -0.00089844 -0.99368 -0.0017969 -1.4898 c0.0026953 -0.49964 -0.0044532 -0.99928 -0.0071484 -1.499 c-0.00089844 -0.51072 -0.011055 -1.0202 -0.023906 -1.5309 c-0.010156 -0.54176 -0.031055 -1.0844 -0.061212 -1.6262 c-0.029258 -0.5958 -0.070428 -1.1907 -0.10535 -1.7864 c-0.053124 -0.67728 -0.089532 -1.359 -0.010117 -2.036 c0.039414 -0.56564 0.094336 -1.1304 0.17312 -1.6921 c0.052228 -0.54444 -0.027461 -1.0973 -0.0083592 -1.6438 c0.00089844 -0.61128 0.026562 -1.2226 0.010156 -1.8348 c-0.0044924 -0.62772 -0.017344 -1.2555 -0.0075 -1.8832 c-0.0053908 -0.64264 -0.00089844 -1.285 -0.015508 -1.9274 c0.010156 -0.67728 -0.0017969 -1.3536 -0.0053908 -2.0306 c0.0080468 -0.70384 -0.0044924 -1.4086 -0.012852 -2.1133 c0.011055 -0.72204 0.0053908 -1.445 -0.00085936 -2.167 c-0.012852 -0.75308 0.00089844 -1.5062 -0.012812 -2.2592 c-0.010156 -0.78892 -0.0053908 -1.5787 -0.0026953 -2.3685 c-0.011055 -0.75756 0.022656 -1.5154 0.025625 -2.2732 c0 -0.64144 0.041212 -1.2829 0.050156 -1.9243 c0.031055 -0.3725 0.050468 -0.75308 0.13375 -1.1184 c0 -0.2734 3.869 -0.2734 3.869 0 l0.0020703 0 c0.08328 0.36445 0.10328 0.74504 0.13344 1.1184 c0.0038672 0.22594 0.011914 0.45188 0.020274 0.67812 c0.1227 -0.0047656 0.24598 -0.0065624 0.36777 -0.011953 c0.39641 -0.005664 0.79252 -0.005664 1.1889 -0.015508 c0.099688 0.0080468 0.20027 0.0053516 0.29816 0.023555 c0.16926 0.028359 0.52176 0.12359 0.70292 0.17137 c0.24625 0.063868 0.48504 0.11254 0.72652 0.19223 c0.69012 0.27996 1.239 0.72468 1.7094 1.293 c0.33879 0.4134 0.57488 0.89844 0.8092 1.3754 c0.26625 0.55456 0.40176 1.1557 0.52592 1.7542 c0.1027 0.5776 0.13555 1.1614 0.17047 1.7452 c0.044764 0.5728 0.054024 1.1483 0.05582 1.7232 c0.026562 0.52712 0.07582 1.0524 0.10805 1.5784 z M55.5708 19.146 c0.02 -0.5134 0.037539 -1.0267 0.060508 -1.5392 c0.017305 -0.49308 -0.01375 -0.98648 -0.042108 -1.4787 c-0.026562 -0.5692 -0.060272 -1.1376 -0.095196 -1.7059 c-0.018203 -0.53072 -0.031953 -1.0605 -0.039414 -1.5912 c-0.023594 -0.4522 -0.059412 -0.90232 -0.11703 -1.3509 c-0.030156 -0.29192 -0.10629 -0.57368 -0.22808 -0.8408 c-0.10238 -0.2152 -0.17371 -0.42832 -0.36144 -0.58684 c0.06328 0.13191 -0.1782 -0.012539 -0.20566 0.060588 c-0.31133 -0.040312 -0.61128 -0.15941 -0.9226 -0.097032 c-0.16297 -0.0044924 -0.32652 -0.0044924 -0.48948 -0.0065624 c0.0026953 0.6644 0.009258 1.3279 -0.0017969 1.9914 c-0.010156 0.75308 0.0017969 1.5062 -0.010156 2.2592 c-0.0053908 0.72204 -0.012852 1.4453 -0.00089844 2.1673 c-0.0053908 0.70352 -0.018242 1.4082 -0.012852 2.113 c-0.0026953 0.67696 -0.015547 1.3533 -0.0053908 2.0306 c-0.01582 0.64236 -0.010156 1.2847 -0.01582 1.9274 c0.010156 0.62772 -0.0026953 1.2555 -0.008086 1.8832 c-0.018203 0.61128 0.010156 1.2226 0.010156 1.8348 c-0.011055 0.63072 -0.011055 1.2602 -0.047772 1.89 c-0.019102 0.2543 -0.051328 0.50768 -0.078476 0.762 c0.089532 0 0.19668 -0.00089844 0.31637 -0.0017969 c-0.046564 0.0038672 -0.091328 0.010117 -0.11699 0.024726 c-0.066876 -0.00625 -0.13285 -0.014609 -0.20062 -0.017305 c-0.010742 0.096092 -0.019102 0.19308 -0.030156 0.28918 c0.097892 -0.17938 0.17848 -0.28652 0.22504 -0.27012 c0.0012109 -0.00089844 0.0048048 -0.00089844 0.0057032 -0.0017969 c0.19133 0.019414 0.38058 0.043008 0.57372 0.016445 c0.22148 -0.045664 0.4292 -0.13164 0.65424 -0.10238 c0.028359 0.0026953 0.057616 0.031055 0.08328 0.018203 c0.088944 -0.040312 0.31223 -0.37164 0.26356 -0.13164 c-0.015508 0.20387 0.16387 -0.23074 0.14656 -0.24625 c0.041172 -0.10805 0.010117 -0.012812 0.040272 -0.25816 c0.033711 -0.26356 0.068632 -0.52592 0.088632 -0.7916 c0.041212 -0.41996 0.10449 -0.83636 0.14926 -1.2554 c0.04836 -0.46208 0.10328 -0.92324 0.17371 -1.3838 c0.052228 -0.44472 0.10356 -0.88944 0.17488 -1.3315 c0.044764 -0.4098 0.02 -0.8226 0.025664 -1.2342 c0.0044924 -0.50176 0.0044924 -1.0041 0.010156 -1.5056 c0.0098436 -0.51252 0.012539 -1.0259 0.028359 -1.5393 z M53.2748 28.867 c0.088048 -0.00625 0.17578 -0.00089844 0.12266 -0.00089844 c-0.044764 0 -0.081484 0.00089844 -0.12266 0.00089844 z M75.98 5.225000000000001 c0.020898 0.63308 -0.0029297 1.2668 -0.03875 1.8981 c-0.053124 0.60684 -0.042968 1.2154 -0.058476 1.824 c-0.0026953 0.63696 -0.054024 1.2727 -0.11074 1.907 c-0.050428 0.61876 -0.018476 1.2381 -0.032226 1.8578 c-0.018203 0.64324 -0.039102 1.2876 -0.062968 1.9309 c-0.015508 0.5528 -0.021172 1.1056 -0.031914 1.6581 c0.0080468 0.64532 0.020898 1.2904 -0.010156 1.9348 c-0.039414 0.6516 -0.061484 1.3041 -0.081484 1.9566 c-0.023867 0.58292 -0.045664 1.1658 -0.054924 1.7488 c-0.018203 0.57816 0.0074608 1.1558 0.0074608 1.733 c-0.018516 0.54264 -0.012852 1.0844 0.015508 1.6274 c0.027461 0.571 0.067772 1.1411 0.079412 1.713 c0.010156 0.551 0.021211 1.1008 0.018516 1.6518 c0.0017969 0.5152 0.0080468 1.0304 0.0026562 1.5465 c0.012852 0.54084 -0.0026562 1.0808 -0.042072 1.6199 c-0.025664 0.45668 -0.06418 0.91336 -0.06418 1.3709 c0.015508 0.47668 0.042968 0.95336 0.05672 1.4304 c0.018516 0.50772 0.031367 1.0158 0.034062 1.5235 c0.0044924 0.50056 0.012852 1.0011 0.010156 1.5016 c0.012539 0.43848 -0.054924 0.8722 -0.057892 1.3098 c0.01582 0.29281 0.021211 0.58028 -0.012812 0.8722 c-0.0080468 0.28356 -4.0208 0.15551 -4.0116 -0.12836 c-0.052228 -0.23312 0 -0.48116 -0.021211 -0.71816 c-0.0071484 -0.44028 -0.0053516 -0.87964 -0.0017578 -1.3187 c-0.0035938 -0.31223 -0.0053908 -0.62504 -0.0083592 -0.93728 c-0.79336 0.072228 -1.5912 -0.0053908 -2.381 -0.082384 c-0.43192 -0.042968 -0.86292 -0.098788 -1.2904 -0.17281 c-0.4776 -0.1027 -0.95636 -0.20328 -1.4029 -0.40836 c-0.5316 -0.24418 -1.0196 -0.56536 -1.4202 -0.99548 c-0.29281 -0.32594 -0.61604 -0.6268 -0.85396 -0.99928 c-0.24328 -0.4092 -0.49312 -0.81816 -0.63968 -1.2748 c-0.20953 -0.58204 -0.30922 -1.1871 -0.31012 -1.8056 c-0.0017969 -0.51072 0.043868 -1.0196 0.067736 -1.5291 c0.017305 -0.4788 0.044764 -0.95728 0.054924 -1.436 c0.0026953 -0.46028 0.010742 -0.92056 -0.010156 -1.3808 c-0.034024 -0.56832 -0.085976 -1.1366 -0.076132 -1.7059 c0.027461 -0.51608 0.060588 -1.0322 0.09074 -1.5483 c0.027461 -0.54832 0.059412 -1.0954 0.094336 -1.6438 c0.034609 -0.54356 0.086836 -1.0853 0.10144 -1.6298 c0.033711 -0.58204 0.05578 -1.1641 0.0925 -1.7452 c0.04746 -0.59012 0.05672 -1.1832 0.10688 -1.7736 c0.032226 -0.54444 0.065936 -1.0889 0.067736 -1.6351 c0.0017969 -0.58116 0.0017969 -1.1623 0.012852 -1.7426 c0.00089844 -0.61936 0.026562 -1.2381 0.061484 -1.8566 c0.0098436 -0.60864 0.018203 -1.2181 0.053712 -1.8259 c0.03043 -0.551 0.0083592 -1.1008 0.022969 -1.6527 c0.021211 -0.53428 0.024805 -1.0698 0.0466 -1.6043 c0.038516 -0.56264 0.09254 -1.1226 0.19133 -1.679 c0.065076 -0.43308 0.15106 -0.86232 0.19973 -1.2969 c0.05582 -0.38715 0.11434 -0.78144 0.26805 -1.1438 c0.054924 -0.26832 3.8463 0.50864 3.7914 0.77696 l0.0026953 0.00089844 c0.041172 0.26805 -0.0071876 0.55552 -0.03375 0.82536 c-0.030156 0.47044 -0.1027 0.93728 -0.17492 1.402 c-0.063868 0.4328 -0.1134 0.86768 -0.11699 1.3059 c-0.010156 0.52624 -0.031367 1.0516 -0.048672 1.5778 c-0.031055 0.51252 -0.0017969 1.0259 0.019414 1.5384 c0.025391 0.65252 -0.0083204 1.305 -0.047736 1.9554 c-0.018203 0.58028 -0.060272 1.1588 -0.067736 1.7381 c0.01375 0.60204 -0.00085936 1.2041 -0.026524 1.8064 c-0.026562 0.57456 -0.041172 1.1504 -0.065664 1.7258 c-0.009258 0.60416 -0.068672 1.2053 -0.09164 1.8082 c-0.031953 0.58564 -0.08418 1.1686 -0.1218 1.7533 c-0.053124 0.54384 -0.070428 1.0892 -0.10328 1.6336 c-0.034024 0.54832 -0.070428 1.0963 -0.1125 1.6434 c-0.03582 0.51636 -0.067772 1.0324 -0.10629 1.5476 c0.031055 0.44028 0.062384 0.88112 0.078788 1.3232 c0.021797 0.53636 0.020898 1.0736 0.0062892 1.6097 c-0.011953 0.51252 -0.031055 1.0259 -0.060312 1.5375 c-0.02207 0.47308 -0.049532 0.94616 -0.076992 1.4184 c0.0017969 0.062072 -0.018203 0.49876 0.023008 0.53072 c0.08418 0.065076 -0.082384 -0.2325 0.031055 -0.013711 c0.071328 0.18207 0.14176 0.37996 0.30113 0.50236 c0.19672 0.14207 0.32476 0.3734 0.52984 0.50712 c0.12625 0.073124 0.23879 0.025664 0.3752 0.039375 c0.27102 0.02 0.53996 0.062072 0.81072 0.080588 c0.36625 0.041212 0.73308 0.062108 1.1002 0.093164 c0.031055 0.0038672 0.061212 0.0038672 0.092264 0.0065624 c0.23164 -0.014609 0.46328 -0.033125 0.6946 -0.057616 c0.038516 -0.011953 0.094336 0.057576 0.16031 0.17547 c0.0071484 -0.451 0.031914 -0.90236 0.062072 -1.3525 c0.025664 -0.46028 0.048632 -0.91964 0.033125 -1.382 c-0.0083592 -0.50592 -0.0083592 -1.013 -0.015508 -1.519 c-0.013711 -0.528 -0.023867 -1.0551 -0.04328 -1.5822 c-0.023594 -0.54084 -0.027188 -1.0826 -0.073164 -1.6226 c-0.037305 -0.61308 -0.067736 -1.2253 -0.060272 -1.8392 c0.0026953 -0.58564 0.034648 -1.1707 0.026602 -1.7563 c0.0017969 -0.60028 -0.005664 -1.1996 -0.00089844 -1.7999 c0.013711 -0.68084 0.031914 -1.3617 0.057576 -2.0417 c0.030156 -0.59308 0.1209 -1.1817 0.11074 -1.7763 c-0.0074608 -0.56028 -0.005664 -1.1202 -0.012812 -1.6802 c-0.010156 -0.66084 -0.015547 -1.3226 -0.0026953 -1.9832 c0.015508 -0.66892 0.08414 -1.3342 0.12266 -2.0022 c0.025352 -0.58684 0.061172 -1.1724 0.05578 -1.7599 c0.012539 -0.64144 0.062968 -1.2829 0.078476 -1.9246 c0.027461 -0.57192 0.082384 -1.1429 0.075236 -1.7158 c0.0017969 -0.52712 0.018203 -1.0542 0.026562 -1.5813 c0.02625 -0.36504 0.010742 -0.74408 0.11254 -1.0981 c0 -0.27371 3.869 -0.27371 3.869 0 l0.0056641 0 c0.10238 0.35402 0.087772 0.7322 0.11254 1.0981 c0.0080468 0.52712 0.023555 1.0542 0.026524 1.5813 z M90.516 15.940999999999999 c0.031953 0.594 0.038945 1.187 0.018047 1.781 c-0.026562 0.51428 -0.05672 1.0277 -0.071328 1.542 c-0.017617 0.48864 -0.029258 0.97816 -0.032226 1.4668 c-0.0044924 0.49252 -0.012852 0.98384 -0.012852 1.4763 c0.010156 0.56084 0 1.1146 -0.079412 1.67 c-0.078788 0.4522 -0.11461 0.90944 -0.18504 1.3625 c-0.074924 0.39816 -0.12445 0.8008 -0.15191 1.2044 c-0.06746 0.42652 -0.11969 0.85456 -0.16176 1.2838 c-0.040312 0.48684 -0.10719 0.97456 -0.20508 1.4542 c-0.10805 0.62056 -0.41548 1.1584 -0.7614 1.6727 c-0.33133 0.41012 -0.74292 0.7486 -1.174 1.0507 c-0.4146 0.27641 -0.88144 0.43848 -1.3519 0.58564 c-0.50056 0.17582 -1.022 0.2573 -1.5491 0.28746 c-0.34238 0.0044924 -0.68652 0.021211 -1.0286 0.023906 c0.0053908 0.1427 0.012852 0.28539 0.017344 0.42836 c0.013711 0.57192 0.015508 1.1429 0.023867 1.7148 c0.0053908 0.52264 0.00089844 1.045 0.0053908 1.5676 c0.00089844 0.50324 -0.0017969 1.0074 0.0017969 1.5118 c0 0.49788 -0.0044924 0.9958 0.00089844 1.4934 c-0.018203 0.12356 -0.035508 0.24625 -0.053124 0.3698 c-0.022695 0.28566 -4.0648 -0.038476 -4.042 -0.32473 c-0.0053908 -0.01375 -0.0098828 -0.02957 -0.012852 -0.04418 c0.0029688 -0.49668 -0.00089844 -0.99368 -0.0017969 -1.4898 c0.0026953 -0.49964 -0.0044532 -0.99928 -0.0071484 -1.499 c-0.00089844 -0.51072 -0.011055 -1.0202 -0.023906 -1.5309 c-0.010156 -0.54176 -0.031055 -1.0844 -0.061212 -1.6262 c-0.029258 -0.5958 -0.070428 -1.1907 -0.10535 -1.7864 c-0.053124 -0.67728 -0.089532 -1.359 -0.010117 -2.036 c0.039414 -0.56564 0.094336 -1.1304 0.17312 -1.6921 c0.052228 -0.54444 -0.027461 -1.0973 -0.0083592 -1.6438 c0.00089844 -0.61128 0.026562 -1.2226 0.010156 -1.8348 c-0.0044924 -0.62772 -0.017344 -1.2555 -0.0075 -1.8832 c-0.0053908 -0.64264 -0.00089844 -1.285 -0.015508 -1.9274 c0.010156 -0.67728 -0.0017969 -1.3536 -0.0053908 -2.0306 c0.0080468 -0.70384 -0.0044924 -1.4086 -0.012852 -2.1133 c0.011055 -0.72204 0.0053908 -1.445 -0.00085936 -2.167 c-0.012852 -0.75308 0.00089844 -1.5062 -0.012812 -2.2592 c-0.010156 -0.78892 -0.0053908 -1.5787 -0.0026953 -2.3685 c-0.011055 -0.75756 0.022656 -1.5154 0.025625 -2.2732 c0 -0.64144 0.041212 -1.2829 0.050156 -1.9243 c0.031055 -0.3725 0.050468 -0.75308 0.13375 -1.1184 c0 -0.2734 3.869 -0.2734 3.869 0 l0.0020703 0 c0.08328 0.36445 0.10328 0.74504 0.13344 1.1184 c0.0038672 0.22594 0.011914 0.45188 0.020274 0.67812 c0.1227 -0.0047656 0.24598 -0.0065624 0.36777 -0.011953 c0.39641 -0.005664 0.79252 -0.005664 1.1889 -0.015508 c0.099688 0.0080468 0.20027 0.0053516 0.29816 0.023555 c0.16926 0.028359 0.52176 0.12359 0.70292 0.17137 c0.24625 0.063868 0.48504 0.11254 0.72652 0.19223 c0.69012 0.27996 1.239 0.72468 1.7094 1.293 c0.33879 0.4134 0.57488 0.89844 0.8092 1.3754 c0.26625 0.55456 0.40176 1.1557 0.52592 1.7542 c0.1027 0.5776 0.13555 1.1614 0.17047 1.7452 c0.044764 0.5728 0.054024 1.1483 0.05582 1.7232 c0.026562 0.52712 0.07582 1.0524 0.10805 1.5784 z M86.3508 19.146 c0.02 -0.5134 0.037539 -1.0267 0.060508 -1.5392 c0.017305 -0.49308 -0.01375 -0.98648 -0.042108 -1.4787 c-0.026562 -0.5692 -0.060272 -1.1376 -0.095196 -1.7059 c-0.018203 -0.53072 -0.031953 -1.0605 -0.039414 -1.5912 c-0.023594 -0.4522 -0.059412 -0.90232 -0.11703 -1.3509 c-0.030156 -0.29192 -0.10629 -0.57368 -0.22808 -0.8408 c-0.10238 -0.2152 -0.17371 -0.42832 -0.36144 -0.58684 c0.06328 0.13191 -0.1782 -0.012539 -0.20566 0.060588 c-0.31133 -0.040312 -0.61128 -0.15941 -0.9226 -0.097032 c-0.16297 -0.0044924 -0.32652 -0.0044924 -0.48948 -0.0065624 c0.0026953 0.6644 0.009258 1.3279 -0.0017969 1.9914 c-0.010156 0.75308 0.0017969 1.5062 -0.010156 2.2592 c-0.0053908 0.72204 -0.012852 1.4453 -0.00089844 2.1673 c-0.0053908 0.70352 -0.018242 1.4082 -0.012852 2.113 c-0.0026953 0.67696 -0.015547 1.3533 -0.0053908 2.0306 c-0.01582 0.64236 -0.010156 1.2847 -0.01582 1.9274 c0.010156 0.62772 -0.0026953 1.2555 -0.008086 1.8832 c-0.018203 0.61128 0.010156 1.2226 0.010156 1.8348 c-0.011055 0.63072 -0.011055 1.2602 -0.047772 1.89 c-0.019102 0.2543 -0.051328 0.50768 -0.078476 0.762 c0.089532 0 0.19668 -0.00089844 0.31637 -0.0017969 c-0.046564 0.0038672 -0.091328 0.010117 -0.11699 0.024726 c-0.066876 -0.00625 -0.13285 -0.014609 -0.20062 -0.017305 c-0.010742 0.096092 -0.019102 0.19308 -0.030156 0.28918 c0.097892 -0.17938 0.17848 -0.28652 0.22504 -0.27012 c0.0012109 -0.00089844 0.0048048 -0.00089844 0.0057032 -0.0017969 c0.19133 0.019414 0.38058 0.043008 0.57372 0.016445 c0.22148 -0.045664 0.4292 -0.13164 0.65424 -0.10238 c0.028359 0.0026953 0.057616 0.031055 0.08328 0.018203 c0.088944 -0.040312 0.31223 -0.37164 0.26356 -0.13164 c-0.015508 0.20387 0.16387 -0.23074 0.14656 -0.24625 c0.041172 -0.10805 0.010117 -0.012812 0.040272 -0.25816 c0.033711 -0.26356 0.068632 -0.52592 0.088632 -0.7916 c0.041212 -0.41996 0.10449 -0.83636 0.14926 -1.2554 c0.04836 -0.46208 0.10328 -0.92324 0.17371 -1.3838 c0.052228 -0.44472 0.10356 -0.88944 0.17488 -1.3315 c0.044764 -0.4098 0.02 -0.8226 0.025664 -1.2342 c0.0044924 -0.50176 0.0044924 -1.0041 0.010156 -1.5056 c0.0098436 -0.51252 0.012539 -1.0259 0.028359 -1.5393 z M84.05480000000001 28.867 c0.088048 -0.00625 0.17578 -0.00089844 0.12266 -0.00089844 c-0.044764 0 -0.081484 0.00089844 -0.12266 0.00089844 z"></path></g><g id="SvgjsG9571" featureKey="sloganFeature-0" transform="matrix(0.32474743696704234,0,0,0.32474743696704234,170.10529525920498,158.9030198691337)" fill="url(#SvgjsLinearGradient9585)"><path d="M25.628 15.559999999999999 c1.44 0.34 3.44 -0.32 4.14 -1.32 c0.46 -0.7 0.3 -1.02 0.24 -1.16 c-0.3 -0.58 -1.3 -1.2 -2.44 -1.24 c-2.4 -0.08 -7.98 -0.26 -9.24 -5.94 c-0.6 -2.72 0.36 -5.76 2.44 -7.74 c1.94 -1.82 4.74 -2.74 7.5 -2.44 s4.94 1.84 5.7 4.02 c0.94 2.66 -0.46 5.26 -2.06 6.8 l-3.02 -3.12 c0.76 -0.74 1.18 -1.68 0.98 -2.24 c-0.2 -0.54 -1.06 -1.02 -2.06 -1.14 c-1.5 -0.16 -3.04 0.34 -4.04 1.28 c-0.98 0.94 -1.46 2.4 -1.2 3.64 c0.36 1.58 1.24 2.4 5.14 2.54 c2.64 0.08 5.12 1.52 6.18 3.6 c0.88 1.76 0.7 3.78 -0.52 5.58 c-1.56 2.3 -4.42 3.32 -6.92 3.32 c-0.62 0 -1.22 -0.06 -1.78 -0.18 c-2.38 -0.54 -4 -2.06 -4.94 -4.64 l4.1 -1.48 c0.48 1.34 1.02 1.7 1.8 1.86 z M41.096 15.440000000000001 c0.26 0.04 0.52 0.08 0.78 0.1 c-0.36 -5.08 -0.54 -10.18 -0.54 -15.28 c-0.52 -0.04 -1.04 -0.1 -1.56 -0.16 l0.64 -4.32 c2 0.3 4.08 0.28 6.16 -0.06 l0.7 4.3 c-0.52 0.08 -1.06 0.14 -1.58 0.2 c0 5.08 0.18 10.2 0.54 15.28 c0.34 -0.02 0.68 -0.08 1.02 -0.12 l0.7 4.28 c-1.34 0.22 -2.7 0.34 -4.04 0.34 c-1.16 0 -2.32 -0.08 -3.46 -0.26 z M53.36399999999999 1.4600000000000009 c-0.02 -0.04 -0.06 -0.06 -0.08 -0.08 l0.08 -0.08 l0 -3.28 l4.36 0.06 l0 1.66 c2.04 2.22 4.18 4.4 6.36 6.5 c1.62 -2.18 3.18 -4.42 4.68 -6.66 l0 -1.56 l4.36 0.06 c-0.02 0.88 -0.02 1.78 -0.02 2.68 l0.06 0.04 c-0.02 0.04 -0.04 0.06 -0.06 0.08 c0 6.26 0.28 12.54 0.82 18.74 l-4.34 0.38 c-0.38 -4.28 -0.62 -8.58 -0.74 -12.9 c-1.54 2.12 -3.12 4.22 -4.76 6.26 l-3.4 -2.72 c0.24 -0.32 0.5 -0.62 0.74 -0.92 c-1.24 -1.18 -2.46 -2.38 -3.66 -3.6 c0.12 4.5 0.36 9.02 0.76 13.5 l-4.34 0.38 c-0.54 -6.14 -0.8 -12.36 -0.82 -18.54 z M91.13199999999999 10.32 c-0.9 0.88 -2.06 1.6 -3.54 2.22 c-1.16 0.5 -2.38 0.88 -3.6 1.12 c0.1 2 0.26 3.98 0.42 5.96 l-4.34 0.38 c-0.62 -7.28 -0.9 -14.68 -0.8 -21.98 l4.22 0.04 l0.24 -1.14 c2.06 0.44 4.24 0.96 6.14 2.26 c2.4 1.66 3.78 4.36 3.48 6.88 c-0.18 1.54 -0.96 3.06 -2.22 4.26 z M83.77199999999999 9.24 c0.72 -0.18 1.44 -0.4 2.12 -0.7 c0.98 -0.42 1.7 -0.86 2.22 -1.36 s0.86 -1.08 0.92 -1.62 c0.1 -0.92 -0.56 -2.06 -1.62 -2.78 c-1.04 -0.72 -2.38 -1.1 -3.8 -1.42 c0 2.62 0.06 5.26 0.16 7.88 z M98.74 19.9 l0.24 -4.36 c0.18 0.02 0.38 0.02 0.56 0.04 c-0.44 -6.22 -0.62 -12.48 -0.54 -18.68 l4.34 0.04 c-0.08 6.22 0.12 12.48 0.56 18.68 c3.24 -0.06 6.46 -0.38 9.62 -0.94 l0.76 4.28 c-3.86 0.7 -7.82 1.04 -11.78 1.04 c-1.24 0 -2.5 -0.04 -3.76 -0.1 z M120.92799999999998 15.440000000000001 c0.26 0.04 0.52 0.08 0.78 0.1 c-0.36 -5.08 -0.54 -10.18 -0.54 -15.28 c-0.52 -0.04 -1.04 -0.1 -1.56 -0.16 l0.64 -4.32 c2 0.3 4.08 0.28 6.16 -0.06 l0.7 4.3 c-0.52 0.08 -1.06 0.14 -1.58 0.2 c0 5.08 0.18 10.2 0.54 15.28 c0.34 -0.02 0.68 -0.08 1.02 -0.12 l0.7 4.28 c-1.34 0.22 -2.7 0.34 -4.04 0.34 c-1.16 0 -2.32 -0.08 -3.46 -0.26 z M136.676 17.86 c-2.02 -2.36 -3.3 -5.94 -3.52 -9.82 c-0.32 -5.74 2.68 -10.48 7.6 -12.06 c2.34 -0.76 4.7 -0.6 6.8 -0.44 l-0.32 4.34 c-1.76 -0.12 -3.6 -0.26 -5.14 0.24 c-3.62 1.16 -4.76 4.74 -4.6 7.68 c0.16 2.9 1.1 5.6 2.48 7.22 c1.84 2.14 5.28 1.58 7.68 0.16 l2.22 3.76 c-1.9 1.12 -4.22 1.84 -6.52 1.84 c-2.46 0 -4.88 -0.84 -6.68 -2.92 z  M156.52399999999997 15.440000000000001 c0.26 0.04 0.52 0.08 0.78 0.1 c-0.36 -5.08 -0.54 -10.18 -0.54 -15.28 c-0.52 -0.04 -1.04 -0.1 -1.56 -0.16 l0.64 -4.32 c2 0.3 4.08 0.28 6.16 -0.06 l0.7 4.3 c-0.52 0.08 -1.06 0.14 -1.58 0.2 c0 5.08 0.18 10.2 0.54 15.28 c0.34 -0.02 0.68 -0.08 1.02 -0.12 l0.7 4.28 c-1.34 0.22 -2.7 0.34 -4.04 0.34 c-1.16 0 -2.32 -0.08 -3.46 -0.26 z M168.952 -4 c6.82 0.38 13.66 -0.02 20.34 -1.2 l0.76 4.3 c-2.64 0.46 -5.32 0.8 -8 1.04 c-0.02 6.48 0.24 13.04 0.8 19.48 l-4.34 0.38 c-0.56 -6.48 -0.84 -13.06 -0.82 -19.6 c-1.26 0.06 -2.54 0.08 -3.8 0.08 c-1.74 0 -3.46 -0.04 -5.18 -0.14 z M198.88 20 l-3.5 -2.58 c2.44 -3.32 4.82 -6.72 7.1 -10.18 c-2.14 -2.68 -4.1 -5.52 -5.78 -8.48 l3.76 -2.16 c1.36 2.34 2.86 4.6 4.52 6.76 c1.42 -2.24 2.82 -4.5 4.16 -6.78 l3.76 2.22 c-4.3 7.26 -9.02 14.4 -14.02 21.2 z M236.45600000000002 1.4600000000000009 c-0.02 -0.04 -0.06 -0.06 -0.08 -0.08 l0.08 -0.08 l0 -3.28 l4.36 0.06 l0 1.66 c2.04 2.22 4.18 4.4 6.36 6.5 c1.62 -2.18 3.18 -4.42 4.68 -6.66 l0 -1.56 l4.36 0.06 c-0.02 0.88 -0.02 1.78 -0.02 2.68 l0.06 0.04 c-0.02 0.04 -0.04 0.06 -0.06 0.08 c0 6.26 0.28 12.54 0.82 18.74 l-4.34 0.38 c-0.38 -4.28 -0.62 -8.58 -0.74 -12.9 c-1.54 2.12 -3.12 4.22 -4.76 6.26 l-3.4 -2.72 c0.24 -0.32 0.5 -0.62 0.74 -0.92 c-1.24 -1.18 -2.46 -2.38 -3.66 -3.6 c0.12 4.5 0.36 9.02 0.76 13.5 l-4.34 0.38 c-0.54 -6.14 -0.8 -12.36 -0.82 -18.54 z M264.844 6.960000000000001 c-0.02 -1.92 0 -3.86 0.04 -5.78 c-0.84 -0.04 -1.7 -0.06 -2.54 -0.12 l0.26 -4.34 c6.2 0.36 12.42 -0.04 18.48 -1.2 l0.82 4.28 c-4.18 0.8 -8.42 1.26 -12.66 1.38 c-0.06 1.94 -0.06 3.9 -0.04 5.84 c3.26 -0.06 6.52 -0.38 9.7 -0.94 l0.78 4.28 c-3.42 0.6 -6.9 0.96 -10.38 1.02 c0.06 1.68 0.16 3.36 0.26 5.02 c3.7 -0.06 7.38 -0.44 11 -1.14 l0.82 4.28 c-4.32 0.82 -8.74 1.24 -13.14 1.24 c-1.4 0 -2.8 -0.04 -4.2 -0.12 l0.26 -4.34 c0.3 0 0.6 0.02 0.9 0.04 c-0.1 -1.68 -0.2 -3.36 -0.26 -5.04 c-0.26 0 -0.54 0 -0.82 -0.02 l0.26 -4.36 c0.16 0.02 0.3 0.02 0.46 0.02 z M289.73199999999997 6.960000000000001 c-0.02 -1.92 0 -3.86 0.04 -5.78 c-0.84 -0.04 -1.7 -0.06 -2.54 -0.12 l0.26 -4.34 c6.2 0.36 12.42 -0.04 18.48 -1.2 l0.82 4.28 c-4.18 0.8 -8.42 1.26 -12.66 1.38 c-0.06 1.94 -0.06 3.9 -0.04 5.84 c3.26 -0.06 6.52 -0.38 9.7 -0.94 l0.78 4.28 c-3.42 0.6 -6.9 0.96 -10.38 1.02 c0.06 1.68 0.16 3.36 0.26 5.02 c3.7 -0.06 7.38 -0.44 11 -1.14 l0.82 4.28 c-4.32 0.82 -8.74 1.24 -13.14 1.24 c-1.4 0 -2.8 -0.04 -4.2 -0.12 l0.26 -4.34 c0.3 0 0.6 0.02 0.9 0.04 c-0.1 -1.68 -0.2 -3.36 -0.26 -5.04 c-0.26 0 -0.54 0 -0.82 -0.02 l0.26 -4.36 c0.16 0.02 0.3 0.02 0.46 0.02 z M312.35999999999996 -4 c6.82 0.38 13.66 -0.02 20.34 -1.2 l0.76 4.3 c-2.64 0.46 -5.32 0.8 -8 1.04 c-0.02 6.48 0.24 13.04 0.8 19.48 l-4.34 0.38 c-0.56 -6.48 -0.84 -13.06 -0.82 -19.6 c-1.26 0.06 -2.54 0.08 -3.8 0.08 c-1.74 0 -3.46 -0.04 -5.18 -0.14 z M346.268 15.559999999999999 c1.44 0.34 3.44 -0.32 4.14 -1.32 c0.46 -0.7 0.3 -1.02 0.24 -1.16 c-0.3 -0.58 -1.3 -1.2 -2.44 -1.24 c-2.4 -0.08 -7.98 -0.26 -9.24 -5.94 c-0.6 -2.72 0.36 -5.76 2.44 -7.74 c1.94 -1.82 4.74 -2.74 7.5 -2.44 s4.94 1.84 5.7 4.02 c0.94 2.66 -0.46 5.26 -2.06 6.8 l-3.02 -3.12 c0.76 -0.74 1.18 -1.68 0.98 -2.24 c-0.2 -0.54 -1.06 -1.02 -2.06 -1.14 c-1.5 -0.16 -3.04 0.34 -4.04 1.28 c-0.98 0.94 -1.46 2.4 -1.2 3.64 c0.36 1.58 1.24 2.4 5.14 2.54 c2.64 0.08 5.12 1.52 6.18 3.6 c0.88 1.76 0.7 3.78 -0.52 5.58 c-1.56 2.3 -4.42 3.32 -6.92 3.32 c-0.62 0 -1.22 -0.06 -1.78 -0.18 c-2.38 -0.54 -4 -2.06 -4.94 -4.64 l4.1 -1.48 c0.48 1.34 1.02 1.7 1.8 1.86 z M380.544 18.8 l-1.16 0.1 c-0.62 -7.28 -0.9 -14.68 -0.8 -22 l1.76 0.04 l0.16 -2.3 c0.88 0.06 1.82 0.04 2.8 0 c2.42 -0.04 5.14 -0.1 7.66 1.06 c5.8 2.66 7 9.24 5.22 14.36 c-2.56 7.28 -10.1 9.34 -15.1 10.72 z M383.40399999999994 -1 c-0.16 0 -0.32 0 -0.48 0.02 c-0.02 5.48 0.16 11.02 0.56 16.5 c4.06 -1.38 7.28 -3.2 8.58 -6.9 c1.12 -3.16 0.66 -7.32 -2.92 -8.98 c-1.6 -0.74 -3.62 -0.68 -5.74 -0.64 z M404.77199999999993 6.960000000000001 c-0.02 -1.92 0 -3.86 0.04 -5.78 c-0.84 -0.04 -1.7 -0.06 -2.54 -0.12 l0.26 -4.34 c6.2 0.36 12.42 -0.04 18.48 -1.2 l0.82 4.28 c-4.18 0.8 -8.42 1.26 -12.66 1.38 c-0.06 1.94 -0.06 3.9 -0.04 5.84 c3.26 -0.06 6.52 -0.38 9.7 -0.94 l0.78 4.28 c-3.42 0.6 -6.9 0.96 -10.38 1.02 c0.06 1.68 0.16 3.36 0.26 5.02 c3.7 -0.06 7.38 -0.44 11 -1.14 l0.82 4.28 c-4.32 0.82 -8.74 1.24 -13.14 1.24 c-1.4 0 -2.8 -0.04 -4.2 -0.12 l0.26 -4.34 c0.3 0 0.6 0.02 0.9 0.04 c-0.1 -1.68 -0.2 -3.36 -0.26 -5.04 c-0.26 0 -0.54 0 -0.82 -0.02 l0.26 -4.36 c0.16 0.02 0.3 0.02 0.46 0.02 z M427.1599999999999 19.9 l0.24 -4.36 c0.18 0.02 0.38 0.02 0.56 0.04 c-0.44 -6.22 -0.62 -12.48 -0.54 -18.68 l4.34 0.04 c-0.08 6.22 0.12 12.48 0.56 18.68 c3.24 -0.06 6.46 -0.38 9.62 -0.94 l0.76 4.28 c-3.86 0.7 -7.82 1.04 -11.78 1.04 c-1.24 0 -2.5 -0.04 -3.76 -0.1 z M449.3479999999999 15.440000000000001 c0.26 0.04 0.52 0.08 0.78 0.1 c-0.36 -5.08 -0.54 -10.18 -0.54 -15.28 c-0.52 -0.04 -1.04 -0.1 -1.56 -0.16 l0.64 -4.32 c2 0.3 4.08 0.28 6.16 -0.06 l0.7 4.3 c-0.52 0.08 -1.06 0.14 -1.58 0.2 c0 5.08 0.18 10.2 0.54 15.28 c0.34 -0.02 0.68 -0.08 1.02 -0.12 l0.7 4.28 c-1.34 0.22 -2.7 0.34 -4.04 0.34 c-1.16 0 -2.32 -0.08 -3.46 -0.26 z M465.0959999999999 17.86 c-2.02 -2.36 -3.3 -5.94 -3.52 -9.82 c-0.32 -5.74 2.68 -10.48 7.6 -12.06 c2.34 -0.76 4.7 -0.6 6.8 -0.44 l-0.32 4.34 c-1.76 -0.12 -3.6 -0.26 -5.14 0.24 c-3.62 1.16 -4.76 4.74 -4.6 7.68 c0.16 2.9 1.1 5.6 2.48 7.22 c1.84 2.14 5.28 1.58 7.68 0.16 l2.22 3.76 c-1.9 1.12 -4.22 1.84 -6.52 1.84 c-2.46 0 -4.88 -0.84 -6.68 -2.92 z  M484.9439999999999 15.440000000000001 c0.26 0.04 0.52 0.08 0.78 0.1 c-0.36 -5.08 -0.54 -10.18 -0.54 -15.28 c-0.52 -0.04 -1.04 -0.1 -1.56 -0.16 l0.64 -4.32 c2 0.3 4.08 0.28 6.16 -0.06 l0.7 4.3 c-0.52 0.08 -1.06 0.14 -1.58 0.2 c0 5.08 0.18 10.2 0.54 15.28 c0.34 -0.02 0.68 -0.08 1.02 -0.12 l0.7 4.28 c-1.34 0.22 -2.7 0.34 -4.04 0.34 c-1.16 0 -2.32 -0.08 -3.46 -0.26 z M497.1919999999999 10.14 c-0.48 -6.24 2.08 -13.9 8.8 -16 l1.3 4.14 l0.98 -3.98 c7.16 1.78 11.1 10 10.3 16.56 c-0.68 5.5 -4.9 9.14 -10.4 9.14 c-0.32 0 -0.64 -0.02 -0.98 -0.04 c-5.58 -0.42 -9.6 -4.38 -10 -9.82 z M507.2719999999999 -1.6999999999999993 c-4.44 1.4 -6.08 6.94 -5.74 11.5 c0.24 3.34 2.54 5.56 6 5.82 c3.64 0.28 6.28 -1.8 6.72 -5.3 c0.56 -4.6 -2.18 -10.6 -7.02 -11.8 z M528.4999999999999 -4.32 c-0.02 0.5 -0.04 1.02 -0.04 1.56 c-0.22 6.66 -0.46 14.96 5.42 17.96 c0.82 0.42 1.64 0.54 2.28 0.36 c1.26 -0.36 2.24 -1.88 2.94 -4.52 c1.14 -4.38 1.18 -9.68 0.1 -14.96 l4.26 -0.86 c0.86 4.18 1.52 10.5 -0.16 16.92 c-1.1 4.24 -3.1 6.8 -5.94 7.62 c-0.58 0.16 -1.2 0.24 -1.82 0.24 c-1.2 0 -2.44 -0.3 -3.64 -0.92 c-8.34 -4.26 -8.02 -14.5 -7.8 -21.98 c0.02 -0.52 0.04 -1.02 0.04 -1.52 z M557.1679999999999 15.559999999999999 c1.44 0.34 3.44 -0.32 4.14 -1.32 c0.46 -0.7 0.3 -1.02 0.24 -1.16 c-0.3 -0.58 -1.3 -1.2 -2.44 -1.24 c-2.4 -0.08 -7.98 -0.26 -9.24 -5.94 c-0.6 -2.72 0.36 -5.76 2.44 -7.74 c1.94 -1.82 4.74 -2.74 7.5 -2.44 s4.94 1.84 5.7 4.02 c0.94 2.66 -0.46 5.26 -2.06 6.8 l-3.02 -3.12 c0.76 -0.74 1.18 -1.68 0.98 -2.24 c-0.2 -0.54 -1.06 -1.02 -2.06 -1.14 c-1.5 -0.16 -3.04 0.34 -4.04 1.28 c-0.98 0.94 -1.46 2.4 -1.2 3.64 c0.36 1.58 1.24 2.4 5.14 2.54 c2.64 0.08 5.12 1.52 6.18 3.6 c0.88 1.76 0.7 3.78 -0.52 5.58 c-1.56 2.3 -4.42 3.32 -6.92 3.32 c-0.62 0 -1.22 -0.06 -1.78 -0.18 c-2.38 -0.54 -4 -2.06 -4.94 -4.64 l4.1 -1.48 c0.48 1.34 1.02 1.7 1.8 1.86 z M585.5959999999999 20 c-0.18 -2.18 -0.34 -4.36 -0.48 -6.56 c-3 -3 -5.94 -6.1 -8.8 -9.26 c0.12 5.14 0.4 10.3 0.86 15.4 l-4.92 0.42 c-0.72 -8.24 -1.02 -16.64 -0.92 -24.92 l4.94 0.08 c-0.02 0.5 -0.02 1 -0.02 1.5 c2.76 3.18 5.62 6.32 8.54 9.38 c-0.12 -3.66 -0.16 -7.32 -0.1 -10.96 l4.92 0.08 c-0.1 8.12 0.2 16.32 0.9 24.42 z M598.3439999999999 6.960000000000001 c-0.02 -1.92 0 -3.86 0.04 -5.78 c-0.84 -0.04 -1.7 -0.06 -2.54 -0.12 l0.26 -4.34 c6.2 0.36 12.42 -0.04 18.48 -1.2 l0.82 4.28 c-4.18 0.8 -8.42 1.26 -12.66 1.38 c-0.06 1.94 -0.06 3.9 -0.04 5.84 c3.26 -0.06 6.52 -0.38 9.7 -0.94 l0.78 4.28 c-3.42 0.6 -6.9 0.96 -10.38 1.02 c0.06 1.68 0.16 3.36 0.26 5.02 c3.7 -0.06 7.38 -0.44 11 -1.14 l0.82 4.28 c-4.32 0.82 -8.74 1.24 -13.14 1.24 c-1.4 0 -2.8 -0.04 -4.2 -0.12 l0.26 -4.34 c0.3 0 0.6 0.02 0.9 0.04 c-0.1 -1.68 -0.2 -3.36 -0.26 -5.04 c-0.26 0 -0.54 0 -0.82 -0.02 l0.26 -4.36 c0.16 0.02 0.3 0.02 0.46 0.02 z M628.212 15.559999999999999 c1.44 0.34 3.44 -0.32 4.14 -1.32 c0.46 -0.7 0.3 -1.02 0.24 -1.16 c-0.3 -0.58 -1.3 -1.2 -2.44 -1.24 c-2.4 -0.08 -7.98 -0.26 -9.24 -5.94 c-0.6 -2.72 0.36 -5.76 2.44 -7.74 c1.94 -1.82 4.74 -2.74 7.5 -2.44 s4.94 1.84 5.7 4.02 c0.94 2.66 -0.46 5.26 -2.06 6.8 l-3.02 -3.12 c0.76 -0.74 1.18 -1.68 0.98 -2.24 c-0.2 -0.54 -1.06 -1.02 -2.06 -1.14 c-1.5 -0.16 -3.04 0.34 -4.04 1.28 c-0.98 0.94 -1.46 2.4 -1.2 3.64 c0.36 1.58 1.24 2.4 5.14 2.54 c2.64 0.08 5.12 1.52 6.18 3.6 c0.88 1.76 0.7 3.78 -0.52 5.58 c-1.56 2.3 -4.42 3.32 -6.92 3.32 c-0.62 0 -1.22 -0.06 -1.78 -0.18 c-2.38 -0.54 -4 -2.06 -4.94 -4.64 l4.1 -1.48 c0.48 1.34 1.02 1.7 1.8 1.86 z M649.84 15.559999999999999 c1.44 0.34 3.44 -0.32 4.14 -1.32 c0.46 -0.7 0.3 -1.02 0.24 -1.16 c-0.3 -0.58 -1.3 -1.2 -2.44 -1.24 c-2.4 -0.08 -7.98 -0.26 -9.24 -5.94 c-0.6 -2.72 0.36 -5.76 2.44 -7.74 c1.94 -1.82 4.74 -2.74 7.5 -2.44 s4.94 1.84 5.7 4.02 c0.94 2.66 -0.46 5.26 -2.06 6.8 l-3.02 -3.12 c0.76 -0.74 1.18 -1.68 0.98 -2.24 c-0.2 -0.54 -1.06 -1.02 -2.06 -1.14 c-1.5 -0.16 -3.04 0.34 -4.04 1.28 c-0.98 0.94 -1.46 2.4 -1.2 3.64 c0.36 1.58 1.24 2.4 5.14 2.54 c2.64 0.08 5.12 1.52 6.18 3.6 c0.88 1.76 0.7 3.78 -0.52 5.58 c-1.56 2.3 -4.42 3.32 -6.92 3.32 c-0.62 0 -1.22 -0.06 -1.78 -0.18 c-2.38 -0.54 -4 -2.06 -4.94 -4.64 l4.1 -1.48 c0.48 1.34 1.02 1.7 1.8 1.86 z"></path></g>
			</g>
		</svg>
	